# xmcd CD database file
#
# Track frame offsets:
#	150
#	21614
#	42208
#	72897
#	101772
#	129459
#	147937
#	178574
#	200378
#	229883
#	258560
#	293415
#
# Disc length: 4290 seconds
#
# Revision: 0
# Processed by: cddbd v1.5.2PL0 Copyright (c) Steve Scherf et al.
# Submitted via: CDex 1.78
#
DISCID=b010c00c
DTITLE=Matt Woosey - while the cat's away....
DYEAR=2014
DGENRE=Blues
TTITLE0=Hook, Line And Sinker
TTITLE1=Woke Up This Morning
TTITLE2=Exactly As We Please
TTITLE3=99 And 1 Half Days
TTITLE4=Give Me All Your Love, Babe
TTITLE5=Nowhere Is Home
TTITLE6=Elsie May
TTITLE7=Wildest Dreams
TTITLE8=I've Seen The Bottom
TTITLE9=Cruel Disposition
TTITLE10=Little Red Rooster
TTITLE11=Black Smoke Rising
EXTD=YEAR: 2014
EXTT0=
EXTT1=
EXTT2=
EXTT3=
EXTT4=
EXTT5=
EXTT6=
EXTT7=
EXTT8=
EXTT9=
EXTT10=
EXTT11=
PLAYORDER=
